<svg xmlns="http://www.w3.org/2000/svg" viewBox="0 0 64 64" fill="none">
  <rect width="64" height="64" rx="14" fill="#18181b"/>
  <path d="M14 26c0-7.18 6.27-13 14-13h8c7.73 0 14 5.82 14 13v7c0 7.18-6.27 13-14 13h-8a14.99 14.99 0 01-7.56-2.1L16 49l2.34-7.77A11.63 11.63 0 0114 33v-7z" fill="#e4e4e7" opacity="0.95"/>
  <rect x="22" y="25" width="12" height="2.5" rx="1.25" fill="#18181b"/>
  <rect x="22" y="31" width="20" height="2.5" rx="1.25" fill="#18181b" opacity="0.6"/>
  <rect x="22" y="37" width="8" height="2.5" rx="1.25" fill="#18181b" opacity="0.4"/>
  <path d="M43 16l1.5 3.5L48 21l-3.5 1.5L43 26l-1.5-3.5L38 21l3.5-1.5L43 16z" fill="#22c55e"/>
</svg>
